<?xml version="1.0" encoding="utf-8"?>
<!-- Svg Vector Icons : http://www.sfont.cn -->
<!DOCTYPE svg PUBLIC "-//W3C//DTD SVG 1.1//EN" "http://www.w3.org/Graphics/SVG/1.1/DTD/svg11.dtd">
<svg version="1.1" xmlns="http://www.w3.org/2000/svg" xmlns:xlink="http://www.w3.org/1999/xlink" x="0px" y="0px" viewBox="0 0 1000 1000" enable-background="new 0 0 1000 1000" xml:space="preserve">
<metadata> Svg Vector Icons : http://www.sfont.cn </metadata>
<g><g transform="translate(0.000000,511.000000) scale(0.100000,-0.100000)"><path d="M4733.3,4997.7c-610-69.6-1143.4-336.3-1560.9-774.7c-294.6-310.8-507.9-691.2-626.2-1120.3l-62.6-227.3l-7-3827l-4.6-3827l313.1,313.1l313.1,313.1l320.1-320.1L3736-4790l320.1,317.8l317.8,320.1l313.1-313.1l313.1-313.1l313.1,313.1l313.1,313.1l317.8-320.1l320.1-317.8l317.8,317.8l320.1,320.1l313.1-313.1l313.1-313.1l-4.6,3827l-7,3827l-62.6,227.3c-227.3,825.7-814.1,1472.8-1588.8,1755.8C5531.2,4979.2,5067.3,5037.2,4733.3,4997.7z M4274,2745.6c153.1-74.2,299.2-252.8,354.9-431.4c25.5-83.5,46.4-199.5,46.4-259.8v-106.7l-46.4,76.5c-120.6,194.8-408.2,183.2-533.5-23.2c-164.7-269,162.4-579.8,436-412.8l76.5,46.4l-34.8-67.3c-160-308.5-514.9-433.7-783.9-273.7c-338.6,197.1-468.5,728.3-276,1117.9c81.2,162.4,231.9,315.4,354.9,352.5C3998,2805.9,4165,2799,4274,2745.6z M6117.9,2766.5c134.5-39.4,285.3-183.2,368.8-354.9c192.5-389.6,62.6-920.8-276-1117.9c-155.4-92.8-364.2-92.8-517.2-2.3c-113.7,67.3-208.7,164.7-266.7,276l-34.8,67.3l76.5-46.4c157.7-95.1,368.8-34.8,447.6,129.9c69.6,146.1,13.9,315.4-134.5,403.6c-136.9,83.5-324.7,39.4-412.9-97.4l-48.7-76.5l11.6,162.4c13.9,199.5,76.5,347.9,206.4,489.4C5702.8,2778.1,5893,2833.8,6117.9,2766.5z M4315.8-348.4c570.6-116,1213-78.9,1746.5,102c220.4,76.6,222.7,74.2,136.9-136.8c-160-389.6-535.8-702.8-939.3-786.3c-598.4-122.9-1222.3,213.4-1458.9,786.3c-85.8,211.1-83.5,213.4,139.2,136.8C4044.4-281.2,4213.7-327.5,4315.8-348.4z"/></g></g>
</svg>